<svg xmlns="http://www.w3.org/2000/svg" viewBox="0 0 100 100" width="100" height="100" role="img" aria-label="AutoLabels.io mark">
  <defs>
    <linearGradient id="tagBody" x1="0%" y1="0%" x2="100%" y2="100%">
      <stop offset="0%" stop-color="#5AC8FF"/>
      <stop offset="55%" stop-color="#1E90FF"/>
      <stop offset="100%" stop-color="#005FCC"/>
    </linearGradient>
    <linearGradient id="tagShine" x1="0%" y1="0%" x2="0%" y2="100%">
      <stop offset="0%" stop-color="#FFFFFF" stop-opacity="0.40"/>
      <stop offset="55%" stop-color="#FFFFFF" stop-opacity="0"/>
    </linearGradient>
  </defs>
  <path d="
    M 22 16
    L 64 16
    Q 74 16 80 22
    L 88 30
    Q 94 36 94 46
    L 94 76
    Q 94 88 82 88
    L 22 88
    Q 10 88 10 76
    L 10 28
    Q 10 16 22 16 Z"
    fill="url(#tagBody)"/>
  <path d="
    M 22 16
    L 64 16
    Q 74 16 80 22
    L 88 30
    Q 94 36 94 46
    L 94 50
    Q 64 34 10 44
    L 10 28
    Q 10 16 22 16 Z"
    fill="url(#tagShine)"/>
  <circle cx="80" cy="30" r="5.8" fill="white"/>
  <circle cx="80" cy="30" r="2.6" fill="#0B2041"/>
  <text x="42" y="74"
    font-family="Inter, system-ui, sans-serif"
    font-size="54" font-weight="900" fill="white"
    text-anchor="middle" letter-spacing="-0.04em">$</text>
  <g transform="translate(76 72)">
    <circle r="13" fill="url(#tagBody)" stroke="white" stroke-width="2.4"/>
    <path d="M -5.5 0 L -1.5 4 L 5.5 -4.5"
      stroke="white" stroke-width="3" fill="none"
      stroke-linecap="round" stroke-linejoin="round"/>
  </g>
</svg>
